<?xml version="1.0" encoding="UTF-8" standalone="no"?><!DOCTYPE svg PUBLIC "-//W3C//DTD SVG 1.1//EN" "http://www.w3.org/Graphics/SVG/1.1/DTD/svg11.dtd"><svg width="100%" height="100%" viewBox="0 0 800 800" version="1.1" xmlns="http://www.w3.org/2000/svg" xmlns:xlink="http://www.w3.org/1999/xlink" xml:space="preserve" xmlns:serif="http://www.serif.com/" style="fill-rule:evenodd;clip-rule:evenodd;stroke-linejoin:round;stroke-miterlimit:2;"><path d="M716.667,441.663l-0,26.385c-0,51.027 -20.271,99.965 -56.353,136.047c-36.082,36.082 -85.02,56.353 -136.047,56.353l-401.096,-0c-10.565,-0 -20.698,-4.198 -28.169,-11.669c-7.471,-7.471 -11.669,-17.604 -11.669,-28.169l0,-438.204c0,-10.566 4.198,-20.699 11.669,-28.17c7.471,-7.471 17.604,-11.668 28.169,-11.668l401.096,-0c51.027,-0 99.965,20.27 136.047,56.352c36.082,36.082 56.353,85.02 56.353,136.048l-0,30.837c-0,14.455 -11.718,26.173 -26.173,26.173c-0.141,0 -0.282,0 -0.422,0c-6.942,0 -13.599,-2.757 -18.507,-7.666c-4.909,-4.908 -7.666,-11.565 -7.666,-18.507c-0,-14.305 -0,-29.141 -0,-29.141c-0,-78.678 -63.781,-142.459 -142.459,-142.459l-370.303,-0c-8.223,-0 -14.888,6.666 -14.888,14.888l-0,232.368l0.377,-0l-0,78.021l108.76,-0c5.685,-0 11.166,-2.122 15.369,-5.951l72.572,-66.115c4.206,-3.831 9.692,-5.954 15.381,-5.951l367.959,0.198Zm-154.642,-91.829c3.683,0 7.215,1.463 9.819,4.067c2.604,2.604 4.067,6.136 4.067,9.819l-0,12.936c-0,3.682 -1.463,7.214 -4.067,9.818c-2.604,2.604 -6.136,4.067 -9.819,4.067l-348.388,0c-3.683,0 -7.215,-1.463 -9.819,-4.067c-2.604,-2.604 -4.067,-6.136 -4.067,-9.818l0,-12.936c0,-3.683 1.463,-7.215 4.067,-9.819c2.604,-2.604 6.136,-4.067 9.819,-4.067l348.388,0Zm0,-75.985c3.683,-0 7.215,1.463 9.819,4.067c2.604,2.604 4.067,6.135 4.067,9.818l-0,12.936c-0,3.683 -1.463,7.214 -4.067,9.818c-2.604,2.604 -6.136,4.067 -9.819,4.067l-348.388,0c-3.683,0 -7.215,-1.463 -9.819,-4.067c-2.604,-2.604 -4.067,-6.135 -4.067,-9.818l0,-12.936c0,-3.683 1.463,-7.214 4.067,-9.818c2.604,-2.604 6.136,-4.067 9.819,-4.067l348.388,-0Z" style="fill:#98db99;"/></svg>