<?xml version="1.0" encoding="UTF-8" standalone="no"?><!DOCTYPE svg PUBLIC "-//W3C//DTD SVG 1.1//EN" "http://www.w3.org/Graphics/SVG/1.1/DTD/svg11.dtd"><svg width="100%" height="100%" viewBox="0 0 800 800" version="1.1" xmlns="http://www.w3.org/2000/svg" xmlns:xlink="http://www.w3.org/1999/xlink" xml:space="preserve" xmlns:serif="http://www.serif.com/" style="fill-rule:evenodd;clip-rule:evenodd;stroke-linejoin:round;stroke-miterlimit:2;"><path d="M91.031,221.295c-4.929,-4.929 -7.698,-11.614 -7.698,-18.584c0,-23.67 0,-77.711 0,-77.711c0,-22.996 18.671,-41.667 41.667,-41.667l275,0c174.773,0 316.667,141.894 316.667,316.667c-0,174.773 -141.894,316.667 -316.667,316.667l-275,-0c-22.996,-0 -41.667,-18.671 -41.667,-41.667l0,-381.737c0,-3.006 1.811,-5.717 4.589,-6.868c2.778,-1.15 5.975,-0.514 8.101,1.612c40.393,40.392 165.643,165.643 205.376,205.376c2.048,2.048 2.661,5.128 1.552,7.804c-1.108,2.676 -3.719,4.421 -6.616,4.421c-32.182,-0 -98.043,-0 -98.043,-0l0,97.666c0,6.421 5.205,11.626 11.626,11.626c42.932,-0 190.082,-0 190.082,-0c111.326,-0 201.708,-96.294 201.708,-214.9c-0,-118.606 -90.382,-214.9 -201.708,-214.9l-190.082,0c-6.421,0 -11.626,5.205 -11.626,11.626c0,25.254 0,85.223 0,114.773c0,2.858 -1.721,5.434 -4.361,6.527c-2.64,1.094 -5.679,0.489 -7.7,-1.531c-23.668,-23.668 -75.596,-75.596 -95.2,-95.2Z" style="fill:#f8c18c;"/></svg>