<?xml version="1.0" encoding="UTF-8" standalone="no"?><!DOCTYPE svg PUBLIC "-//W3C//DTD SVG 1.1//EN" "http://www.w3.org/Graphics/SVG/1.1/DTD/svg11.dtd"><svg width="100%" height="100%" viewBox="0 0 800 800" version="1.1" xmlns="http://www.w3.org/2000/svg" xmlns:xlink="http://www.w3.org/1999/xlink" xml:space="preserve" xmlns:serif="http://www.serif.com/" style="fill-rule:evenodd;clip-rule:evenodd;stroke-linejoin:round;stroke-miterlimit:2;"><path d="M99.388,226.279c-4.658,0.001 -8.952,-2.514 -11.232,-6.575c-2.279,-4.061 -2.188,-9.037 0.238,-13.012c64.762,-104.033 180.152,-173.359 311.606,-173.359c38.947,0 76.485,6.086 111.712,17.357c10.097,3.326 16.919,12.756 16.919,23.386c0.055,43.329 0.055,154.993 0.055,194.395c-0.001,2.325 -1.391,4.423 -3.531,5.331c-2.139,0.908 -4.614,0.45 -6.287,-1.165c-31.12,-29.057 -72.931,-46.569 -118.868,-46.569l-14.267,0.211l-286.345,-0Zm474.91,-126.532c-0.001,-4.661 2.518,-8.96 6.585,-11.237c4.068,-2.278 9.048,-2.18 13.023,0.256c103.701,64.832 172.761,180.032 172.761,311.234c-0,38.947 -6.086,76.485 -17.357,111.712c-3.326,10.097 -12.756,16.919 -23.386,16.919c-43.272,0.055 -154.699,0.055 -194.239,0.055c-2.336,-0.001 -4.442,-1.405 -5.342,-3.559c-0.901,-2.155 -0.42,-4.64 1.219,-6.303c25.976,-27.047 46.736,-63 46.736,-99.599l-0,-319.478Zm125.97,474.538c4.66,0.002 8.956,2.522 11.232,6.589c2.276,4.066 2.177,9.045 -0.258,13.019c-64.83,103.708 -180.034,172.774 -311.242,172.774c-32.087,-0 -63.217,-4.131 -92.887,-11.889c-10.743,-2.9 -18.207,-12.645 -18.207,-23.773c-0.052,-26.522 -0.052,-76.178 -0.052,-112.559c-0,-11.773 4.678,-23.063 13.005,-31.385c8.327,-8.322 19.619,-12.994 31.392,-12.987c91.601,0.053 298.685,0.172 367.017,0.211Zm-474.566,125.968c0.001,4.661 -2.518,8.96 -6.585,11.237c-4.068,2.278 -9.048,2.18 -13.023,-0.256c-103.701,-64.832 -172.761,-180.032 -172.761,-311.234c0,-38.72 6.015,-76.046 17.16,-111.094c3.313,-10.118 12.753,-16.96 23.399,-16.96c43.316,-0.056 154.768,-0.056 194.031,-0.056c2.32,0.002 4.416,1.387 5.327,3.522c0.91,2.134 0.459,4.606 -1.146,6.281c-28.805,31.062 -46.402,72.646 -46.402,118.307l0,300.253Zm63.152,-300.253c-0,-61.343 49.803,-111.146 111.146,-111.146c61.343,-0 111.146,49.803 111.146,111.146c0,61.343 -49.803,111.146 -111.146,111.146c-61.343,0 -111.146,-49.803 -111.146,-111.146Z" style="fill:#96dfd3;"/></svg>