<?xml version="1.0" encoding="UTF-8" standalone="no"?><!DOCTYPE svg PUBLIC "-//W3C//DTD SVG 1.1//EN" "http://www.w3.org/Graphics/SVG/1.1/DTD/svg11.dtd"><svg width="100%" height="100%" viewBox="0 0 800 800" version="1.1" xmlns="http://www.w3.org/2000/svg" xmlns:xlink="http://www.w3.org/1999/xlink" xml:space="preserve" xmlns:serif="http://www.serif.com/" style="fill-rule:evenodd;clip-rule:evenodd;stroke-linejoin:round;stroke-miterlimit:2;"><path d="M458.621,608.249c-9.266,66.39 -78.587,124.999 -162.614,134.411c-90.329,10.118 -163.666,-40.427 -163.666,-112.801c0,-72.375 73.337,-139.348 163.666,-149.466c25.898,-2.901 50.399,-0.815 72.175,5.341c2.181,0.649 4.54,0.23 6.363,-1.13c1.824,-1.359 2.898,-3.501 2.898,-5.776c0.024,-53.554 0.024,-310.756 0.024,-395.576c-0,-7.214 2.865,-14.133 7.966,-19.234c5.101,-5.101 12.02,-7.967 19.234,-7.967c15.36,0 33.83,0 45.852,0c8.178,0 16.099,2.859 22.391,8.083c16.854,13.991 49.682,41.243 49.682,41.243c98.422,84.523 144.075,158.179 144.075,243.748c-0,10.984 -2.53,31.198 -4.323,44.146c-0.88,6.822 -6.786,11.869 -13.662,11.675c-6.187,-0.162 -13.689,-0.374 -19.704,-0.544c-6.324,-0.181 -11.661,-4.758 -12.803,-10.98c-5.628,-28.35 -24.721,-106.465 -69.595,-153.646c-30.326,-31.884 -58.195,-54.488 -73.825,-66.297c-2.514,-1.805 -5.827,-2.052 -8.581,-0.64c-2.753,1.413 -4.485,4.248 -4.485,7.343c-0.016,78.124 -0.016,413.012 -0.016,413.012c0,0.385 -0.002,0.77 -0.006,1.154c-0.05,4.662 -0.404,9.3 -1.046,13.901Z" style="fill:#ff837d;"/></svg>