<?xml version="1.0" encoding="UTF-8" standalone="no"?><!DOCTYPE svg PUBLIC "-//W3C//DTD SVG 1.1//EN" "http://www.w3.org/Graphics/SVG/1.1/DTD/svg11.dtd"><svg width="100%" height="100%" viewBox="0 0 800 800" version="1.1" xmlns="http://www.w3.org/2000/svg" xmlns:xlink="http://www.w3.org/1999/xlink" xml:space="preserve" xmlns:serif="http://www.serif.com/" style="fill-rule:evenodd;clip-rule:evenodd;stroke-linejoin:round;stroke-miterlimit:2;"><path d="M239.893,492.067c-7.329,-1.882 -15.012,-2.882 -22.928,-2.883l-127.482,0c-2.147,0 -4.206,-0.852 -5.725,-2.371c-1.518,-1.518 -2.371,-3.577 -2.371,-5.725l0,-162.176c0,-2.148 0.853,-4.207 2.371,-5.725c1.519,-1.519 3.578,-2.371 5.725,-2.371l127.482,-0c7.916,-0.001 15.599,-1.001 22.928,-2.883c32.65,-8.385 58.286,-34.258 66.332,-67.043c1.728,-7.042 2.644,-14.403 2.644,-21.979l0,-127.482c0,-2.147 0.853,-4.206 2.372,-5.724c1.518,-1.519 3.577,-2.372 5.724,-2.372l162.177,0c2.147,0 4.207,0.853 5.725,2.372c1.518,1.518 2.371,3.577 2.371,5.724l0,127.482c0,6.66 0.709,13.155 2.054,19.413c7.634,35.499 35.77,63.38 71.406,70.64c5.958,1.214 12.127,1.852 18.444,1.852l127.482,-0c2.148,-0 4.207,0.852 5.725,2.371c1.518,1.518 2.371,3.577 2.371,5.725l0,162.176c0,2.148 -0.853,4.207 -2.371,5.725c-1.518,1.519 -3.577,2.371 -5.725,2.371l-127.482,0c-6.317,0 -12.486,0.638 -18.444,1.852c-35.636,7.26 -63.772,35.141 -71.406,70.64c-1.345,6.258 -2.054,12.753 -2.054,19.413l0,127.482c0,2.147 -0.853,4.206 -2.371,5.724c-1.518,1.519 -3.578,2.372 -5.725,2.372l-162.177,-0c-2.147,-0 -4.206,-0.853 -5.724,-2.372c-1.519,-1.518 -2.372,-3.577 -2.372,-5.724l0,-127.482c0,-7.576 -0.916,-14.937 -2.644,-21.979c-8.046,-32.785 -33.682,-58.658 -66.332,-67.043Zm261.785,-142.155c0,-15.713 -6.242,-30.783 -17.352,-41.894c-11.111,-11.111 -26.181,-17.353 -41.894,-17.353l-92.815,0c-15.713,0 -30.782,6.242 -41.893,17.353c-11.111,11.111 -17.353,26.181 -17.353,41.894l-0,92.815c-0,15.713 6.242,30.782 17.353,41.893c11.111,11.111 26.18,17.353 41.893,17.353l92.815,-0c15.713,-0 30.783,-6.242 41.894,-17.353c11.11,-11.111 17.352,-26.18 17.352,-41.893l0,-92.815Zm-70.877,-14.724c14.555,0 26.354,11.8 26.354,26.355l0,69.552c0,14.556 -11.799,26.355 -26.354,26.355l-69.553,-0c-14.555,-0 -26.354,-11.799 -26.354,-26.355l-0,-69.552c-0,-14.555 11.799,-26.355 26.354,-26.355l69.553,0Zm-256.795,135.691l0,-141.758c0,-2.144 -1.291,-4.077 -3.272,-4.897c-1.981,-0.821 -4.26,-0.367 -5.776,1.149l-70.073,70.073c-2.516,2.515 -2.516,6.593 -0,9.108l70.073,70.073c1.516,1.516 3.795,1.97 5.776,1.149c1.981,-0.82 3.272,-2.753 3.272,-4.897Zm155.087,-295.044l141.759,0c2.143,0 4.076,-1.291 4.897,-3.272c0.82,-1.981 0.367,-4.261 -1.149,-5.776l-70.073,-70.073c-2.516,-2.516 -6.594,-2.516 -9.109,-0l-70.073,70.073c-1.516,1.515 -1.969,3.795 -1.149,5.776c0.821,1.981 2.753,3.272 4.897,3.272Zm293.008,153.286l0,141.758c0,2.144 1.292,4.077 3.272,4.897c1.981,0.821 4.261,0.367 5.777,-1.149l70.073,-70.073c2.515,-2.515 2.515,-6.593 -0,-9.108l-70.073,-70.073c-1.516,-1.516 -3.796,-1.97 -5.777,-1.149c-1.98,0.82 -3.272,2.753 -3.272,4.897Zm-151.249,290.841l-141.759,0c-2.144,0 -4.076,1.292 -4.897,3.272c-0.82,1.981 -0.367,4.261 1.149,5.777l70.073,70.073c2.515,2.515 6.593,2.515 9.109,-0l70.073,-70.073c1.516,-1.516 1.969,-3.796 1.149,-5.777c-0.821,-1.98 -2.754,-3.272 -4.897,-3.272Z" style="fill:#d3b69a;"/></svg>