<?xml version="1.0" encoding="UTF-8" standalone="no"?><!DOCTYPE svg PUBLIC "-//W3C//DTD SVG 1.1//EN" "http://www.w3.org/Graphics/SVG/1.1/DTD/svg11.dtd"><svg width="100%" height="100%" viewBox="0 0 800 800" version="1.1" xmlns="http://www.w3.org/2000/svg" xmlns:xlink="http://www.w3.org/1999/xlink" xml:space="preserve" xmlns:serif="http://www.serif.com/" style="fill-rule:evenodd;clip-rule:evenodd;stroke-linejoin:round;stroke-miterlimit:2;"><path d="M691.063,210.613c14.141,0 25.604,11.463 25.604,25.604l-0,56.566c-0,14.141 -11.463,25.604 -25.604,25.604l-582.126,0c-14.141,0 -25.604,-11.463 -25.604,-25.604l0,-56.566c0,-14.141 11.463,-25.604 25.604,-25.604l582.126,0Zm-32.818,146.997l0,54.479c0,142.623 -115.619,258.241 -258.242,258.241l-0.006,0c-142.623,0 -258.242,-115.618 -258.242,-258.241l-0,-54.479l516.49,-0Zm-258.245,36.736c-60.069,0 -108.837,48.769 -108.837,108.837c-0,60.069 48.768,108.837 108.837,108.837c60.069,0 108.837,-48.768 108.837,-108.837c0,-60.068 -48.768,-108.837 -108.837,-108.837Zm-0,54.419c30.034,-0 54.419,24.384 54.419,54.418c-0,30.035 -24.385,54.419 -54.419,54.419c-30.034,-0 -54.419,-24.384 -54.419,-54.419c0,-30.034 24.385,-54.418 54.419,-54.418Zm239.708,-311.65c10.238,0 18.537,8.299 18.537,18.537l0,18.212l-516.49,0l-0,-18.212c-0,-10.238 8.299,-18.537 18.537,-18.537l479.416,-0Z" style="fill:#f9de81;"/></svg>