<?xml version="1.0" encoding="UTF-8" standalone="no"?><!DOCTYPE svg PUBLIC "-//W3C//DTD SVG 1.1//EN" "http://www.w3.org/Graphics/SVG/1.1/DTD/svg11.dtd"><svg width="100%" height="100%" viewBox="0 0 800 800" version="1.1" xmlns="http://www.w3.org/2000/svg" xmlns:xlink="http://www.w3.org/1999/xlink" xml:space="preserve" xmlns:serif="http://www.serif.com/" style="fill-rule:evenodd;clip-rule:evenodd;stroke-linejoin:round;stroke-miterlimit:2;"><path d="M286.364,166.93c7.681,-0 14.664,4.457 17.899,11.424l188.625,406.339c4.894,10.542 4.071,22.853 -2.182,32.65c-6.254,9.797 -17.073,15.727 -28.696,15.727l-168.924,0c-7.681,0 -14.664,-4.457 -17.898,-11.424l-188.626,-406.339c-4.894,-10.542 -4.071,-22.853 2.182,-32.65c6.254,-9.797 17.074,-15.727 28.696,-15.727l168.924,-0Zm65.992,223.902c1.559,-1.804 2.108,-4.271 1.461,-6.565c-0.646,-2.295 -2.402,-4.112 -4.673,-4.837l-132.793,-42.391c-2.684,-0.857 -5.62,-0.046 -7.483,2.067c-1.862,2.113 -2.299,5.128 -1.113,7.683l59.207,127.544c1.014,2.185 3.068,3.707 5.454,4.041c2.386,0.333 4.778,-0.566 6.354,-2.389l73.586,-85.153Zm199.175,163.586c-3.007,6.477 -9.5,10.622 -16.642,10.622c-7.141,-0 -13.634,-4.145 -16.641,-10.622c-11.206,-24.141 -24.828,-53.484 -29.882,-64.372c-1.276,-2.749 -1.276,-5.922 0,-8.672c16.145,-34.779 124.438,-268.063 143.2,-308.482c1.688,-3.636 5.333,-5.962 9.341,-5.962c10.244,-0 30.81,-0 49.751,-0c8.879,-0 17.146,4.53 21.923,12.015c4.778,7.485 5.407,16.891 1.668,24.945c-37.387,80.539 -125.806,271.01 -162.718,350.528Zm22.637,-387.488c4.24,-0 8.186,2.163 10.467,5.737c2.281,3.573 2.582,8.064 0.796,11.909c-22.083,47.572 -82.881,178.543 -108.169,233.02c-2.036,4.385 -6.43,7.19 -11.264,7.19c-4.834,-0 -9.228,-2.805 -11.264,-7.189c-11.26,-24.257 -27.821,-59.932 -34.413,-74.133c-1.813,-3.906 -1.813,-8.413 0,-12.319c12.016,-25.884 58.435,-125.88 72.299,-155.746c2.397,-5.165 7.574,-8.469 13.269,-8.469c15.669,-0 47.569,-0 68.279,-0Z" style="fill:#bd9aff;"/></svg>