<?xml version="1.0" encoding="UTF-8" standalone="no"?><!DOCTYPE svg PUBLIC "-//W3C//DTD SVG 1.1//EN" "http://www.w3.org/Graphics/SVG/1.1/DTD/svg11.dtd"><svg width="100%" height="100%" viewBox="0 0 800 800" version="1.1" xmlns="http://www.w3.org/2000/svg" xmlns:xlink="http://www.w3.org/1999/xlink" xml:space="preserve" xmlns:serif="http://www.serif.com/" style="fill-rule:evenodd;clip-rule:evenodd;stroke-linejoin:round;stroke-miterlimit:2;"><path d="M716.667,125l-0,550c-0,22.996 -18.671,41.667 -41.667,41.667l-550,-0c-22.996,-0 -41.667,-18.671 -41.667,-41.667l0,-550c0,-22.996 18.671,-41.667 41.667,-41.667l550,0c22.996,0 41.667,18.671 41.667,41.667Z" style="fill:#ba6561;"/><path d="M411.904,201.288l-0,-117.889l20.73,-0l-0,101.01c104.872,15.769 185.387,106.352 185.387,215.591c0,109.239 -80.515,199.822 -185.387,215.591l-0,101.076l-20.73,-0l-0,-117.955c7.013,-0.414 13.929,-1.193 20.73,-2.316c94.364,-15.589 166.429,-97.643 166.429,-196.396c-0,-98.753 -72.065,-180.807 -166.429,-196.396c-6.801,-1.123 -13.717,-1.902 -20.73,-2.316Z" style="fill:#ccc;"/><path d="M369.03,615.834c-105.684,-15.056 -187.051,-106.018 -187.051,-215.834c-0,-109.816 81.367,-200.778 187.051,-215.834l-0,-100.833l20.73,0l-0,117.864c-7.012,0.356 -13.928,1.075 -20.73,2.14c-95.18,14.894 -168.093,97.331 -168.093,196.663c0,99.332 72.913,181.769 168.093,196.663c6.802,1.065 13.718,1.784 20.73,2.14l-0,117.798l-20.73,0l-0,-100.767Z" style="fill:#c39a54;"/><path d="M394.096,293.75c1.326,0.322 2.26,1.509 2.26,2.873c-0,22.089 -0,194.361 -0,194.361c-0,6.479 -5.253,11.732 -11.732,11.732l-2.873,-0l-0,6.219c-0,2.049 -0.814,4.014 -2.263,5.462c-1.449,1.449 -3.413,2.263 -5.462,2.263l-5.753,-0c-2.048,-0 -4.013,-0.814 -5.461,-2.263c-1.449,-1.448 -2.263,-3.413 -2.263,-5.462l0,-6.219l-58.893,-0l0,6.219c0,2.049 -0.814,4.014 -2.262,5.462c-1.449,1.449 -3.413,2.263 -5.462,2.263l-5.753,-0c-2.048,-0 -4.013,-0.814 -5.462,-2.263c-1.448,-1.448 -2.262,-3.413 -2.262,-5.462l-0,-6.219l-3.639,-0c-3.283,-0 -6.432,-1.304 -8.754,-3.626c-2.322,-2.322 -3.626,-5.471 -3.626,-8.754l0,-193.711c-0.001,-1.366 0.934,-2.554 2.261,-2.875c20.501,-4.926 42.584,-8.445 64.509,-8.445c21.924,0 42.498,3.519 62.89,8.445Zm-115.515,164.206c16.268,3.206 33.081,4.886 50.284,4.886c17.891,0 35.362,-1.818 52.236,-5.279l0,-58.721l-102.52,0l-0,59.114Zm94.319,15.864c-3.682,0 -6.671,2.989 -6.671,6.671c0,3.681 2.989,6.67 6.671,6.67c3.681,-0 6.67,-2.989 6.67,-6.67c0,-3.682 -2.989,-6.671 -6.67,-6.671Zm-86.118,0c-3.681,0 -6.67,2.989 -6.67,6.671c0,3.681 2.989,6.67 6.67,6.67c3.682,-0 6.671,-2.989 6.671,-6.67c-0,-3.682 -2.989,-6.671 -6.671,-6.671Zm94.319,-170.373c-16.874,-3.461 -34.345,-5.279 -52.236,-5.279c-17.203,0 -34.016,1.681 -50.284,4.887l-0,52.7l102.52,0l0,-52.308Zm-15.31,66.791l-71.9,0c-1.885,0 -3.693,0.749 -5.027,2.082c-1.333,1.333 -2.082,3.141 -2.082,5.027l0,0.015c0,1.885 0.749,3.694 2.082,5.027c1.334,1.333 3.142,2.082 5.027,2.082l71.9,-0c1.886,-0 3.694,-0.749 5.027,-2.082c1.333,-1.333 2.082,-3.142 2.082,-5.027l-0,-0.015c-0,-1.886 -0.749,-3.694 -2.082,-5.027c-1.333,-1.333 -3.141,-2.082 -5.027,-2.082Z" style="fill:#ebebeb;"/><path d="M450.449,341.863c4.84,-0.388 9.715,-0.651 14.621,-0.784l0,-0.009c0,-4.728 -1.878,-9.262 -5.22,-12.604c-3.343,-3.343 -7.877,-5.221 -12.605,-5.221l-5.546,-0c-0.999,-0 -1.957,-0.397 -2.663,-1.104c-0.707,-0.706 -1.103,-1.666 -1.103,-2.665c-0,-0.999 0.396,-1.96 1.103,-2.666c0.706,-0.707 1.664,-1.104 2.663,-1.104l61.547,0c0.991,0 1.942,0.394 2.643,1.095c0.7,0.701 1.094,1.652 1.094,2.643l0,0.063c0,0.992 -0.394,1.942 -1.094,2.643c-0.701,0.701 -1.652,1.095 -2.643,1.095l-5.274,-0c-9.845,-0 -17.825,7.983 -17.825,17.827c4.962,0.133 9.892,0.4 14.786,0.793c12.842,1.031 25.436,2.946 37.722,5.684c1.846,0.416 3.158,2.057 3.158,3.95c0.001,18.062 0.001,107.002 0.001,139.392c0,3.136 -1.246,6.144 -3.463,8.362c-2.218,2.217 -5.227,3.463 -8.363,3.463l1.783,8.039c0.319,1.437 -0.032,2.941 -0.953,4.089c-0.921,1.148 -2.314,1.816 -3.785,1.816l-4.663,-0c-2.275,-0 -4.245,-1.581 -4.738,-3.803l-2.25,-10.141l-72.996,-0l-2.25,10.141c-0.493,2.222 -2.463,3.803 -4.738,3.803l-4.662,-0c-1.472,-0 -2.864,-0.668 -3.786,-1.816c-0.921,-1.148 -1.271,-2.652 -0.953,-4.089l1.784,-8.039l-0.008,-0c-6.752,-0 -12.225,-5.473 -12.225,-12.225l-0,-138.992c-0.001,-1.894 1.311,-3.536 3.159,-3.952c12.292,-2.738 24.893,-4.654 37.742,-5.684Zm-19.077,131.957c-3.682,0 -6.671,2.989 -6.671,6.671c0,3.681 2.989,6.67 6.671,6.67c3.681,-0 6.67,-2.989 6.67,-6.67c0,-3.682 -2.989,-6.671 -6.67,-6.671Zm82.618,0c-3.681,0 -6.67,2.989 -6.67,6.671c-0,3.681 2.989,6.67 6.67,6.67c3.682,-0 6.671,-2.989 6.671,-6.67c-0,-3.682 -2.989,-6.671 -6.671,-6.671Zm-89.289,-21.596c14.578,6.812 30.838,10.618 47.98,10.618c17.142,0 33.401,-3.806 47.98,-10.618l-0,-94.561c-15.533,-3.007 -31.574,-4.583 -47.98,-4.583c-16.406,0 -32.447,1.576 -47.98,4.583l0,94.561Z" style="fill:#ebebeb;"/></svg>