<?xml version="1.0" encoding="UTF-8" standalone="no"?><!DOCTYPE svg PUBLIC "-//W3C//DTD SVG 1.1//EN" "http://www.w3.org/Graphics/SVG/1.1/DTD/svg11.dtd"><svg width="100%" height="100%" viewBox="0 0 800 800" version="1.1" xmlns="http://www.w3.org/2000/svg" xmlns:xlink="http://www.w3.org/1999/xlink" xml:space="preserve" xmlns:serif="http://www.serif.com/" style="fill-rule:evenodd;clip-rule:evenodd;stroke-linejoin:round;stroke-miterlimit:2;"><path d="M280.594,128.122c5.276,1.36 8.962,6.118 8.962,11.566c0,66.93 0,476.608 0,561.564c0,3.693 -1.708,7.179 -4.628,9.441c-2.92,2.263 -6.722,3.047 -10.299,2.125c-36.519,-9.416 -129.513,-33.393 -158.783,-40.94c-5.276,-1.36 -8.963,-6.118 -8.963,-11.566c-0,-66.93 -0,-476.608 -0,-561.564c0,-3.693 1.709,-7.179 4.629,-9.441c2.919,-2.263 6.721,-3.047 10.298,-2.125c36.519,9.416 129.514,33.393 158.784,40.94Zm403.56,-0c5.276,1.36 8.963,6.118 8.963,11.566c0,66.93 0,476.608 0,561.564c-0,3.693 -1.709,7.179 -4.629,9.441c-2.919,2.263 -6.721,3.047 -10.298,2.125c-36.519,-9.416 -129.514,-33.393 -158.784,-40.94c-5.276,-1.36 -8.962,-6.118 -8.962,-11.566c-0,-66.93 -0,-476.608 -0,-561.564c-0,-3.693 1.708,-7.179 4.628,-9.441c2.92,-2.263 6.722,-3.047 10.299,-2.125c36.519,9.416 129.513,33.393 158.783,40.94Zm-375.491,11.566c0,-5.448 3.687,-10.206 8.963,-11.566c29.27,-7.547 122.265,-31.524 158.784,-40.94c3.576,-0.922 7.379,-0.138 10.298,2.125c2.92,2.262 4.629,5.748 4.629,9.441c-0,84.956 -0,494.634 -0,561.564c-0,5.448 -3.687,10.206 -8.963,11.566c-29.27,7.547 -122.265,31.524 -158.784,40.94c-3.576,0.922 -7.379,0.138 -10.298,-2.125c-2.92,-2.262 -4.629,-5.748 -4.629,-9.441c0,-84.956 0,-494.634 0,-561.564Z" style="fill:url(#_Linear1);"/><defs><linearGradient id="_Linear1" x1="0" y1="0" x2="1" y2="0" gradientUnits="userSpaceOnUse" gradientTransform="matrix(586.234,0,0,633.333,106.883,400)"><stop offset="0" style="stop-color:#54688c;stop-opacity:1"/><stop offset="1" style="stop-color:#708cbd;stop-opacity:1"/></linearGradient></defs></svg>