<?xml version="1.0" encoding="UTF-8" standalone="no"?><!DOCTYPE svg PUBLIC "-//W3C//DTD SVG 1.1//EN" "http://www.w3.org/Graphics/SVG/1.1/DTD/svg11.dtd"><svg width="100%" height="100%" viewBox="0 0 800 800" version="1.1" xmlns="http://www.w3.org/2000/svg" xmlns:xlink="http://www.w3.org/1999/xlink" xml:space="preserve" xmlns:serif="http://www.serif.com/" style="fill-rule:evenodd;clip-rule:evenodd;stroke-linejoin:round;stroke-miterlimit:2;"><g><g><path d="M62.438,209.421l-0,352.144l-29.105,29.014l0,-352.144l29.105,-29.014Z" style="fill:#4a4a4a;"/><path d="M62.438,209.421l-0,352.144l-29.105,29.014l0,-352.144l29.105,-29.014Zm-4.167,10.037l-20.771,20.706l0,340.378l20.771,-20.706l0,-340.378Z" style="fill:#4a4a4a;"/><path d="M590.545,561.565l-26.256,29.014l-530.956,-0l26.256,-29.014l530.956,0Z" style="fill:#4a4a4a;"/><path d="M590.545,561.565l-26.256,29.014l-530.956,-0l26.256,-29.014l530.956,0Zm-9.39,4.167l-519.717,-0l-18.715,20.68l519.717,0l18.715,-20.68Z" style="fill:#4a4a4a;"/><path d="M590.545,561.565l-26.256,29.014l-530.956,-0l26.256,-29.014l530.956,0Z" style="fill:#4a4a4a;"/><path d="M590.545,561.565l-26.256,29.014l-530.956,-0l26.256,-29.014l530.956,0Zm-9.39,4.167l-519.717,-0l-18.715,20.68l519.717,0l18.715,-20.68Z" style="fill:#4a4a4a;"/><path d="M766.667,385.493l-26.256,29.014l-176.122,-0l26.256,-29.014l176.122,0Z" style="fill:#4a4a4a;"/><path d="M766.667,385.493l-26.256,29.014l-176.122,-0l26.256,-29.014l176.122,0Zm-9.39,4.167l-164.883,-0l-18.715,20.68l164.883,0l18.715,-20.68Z" style="fill:#4a4a4a;"/></g><g><rect x="414.498" y="385.493" width="176.072" height="176.072" style="fill:#ababff;"/><path d="M590.57,385.493l0,176.072l-176.072,0l0,-176.072l176.072,0Zm-4.166,4.167l-167.739,-0l-0,167.739l167.739,-0l-0,-167.739Z" style="fill:#4a4a4a;"/><rect x="238.426" y="385.493" width="176.072" height="176.072" style="fill:#9abeff;"/><path d="M414.498,385.493l0,176.072l-176.072,0l0,-176.072l176.072,0Zm-4.166,4.167l-167.739,-0l-0,167.739l167.739,-0l-0,-167.739Z" style="fill:#4a4a4a;"/><rect x="62.462" y="385.493" width="176.072" height="176.072" style="fill:#96dfd3;"/><path d="M238.534,385.493l0,176.072l-176.072,0l0,-176.072l176.072,0Zm-4.167,4.167l-167.738,-0l-0,167.739l167.738,-0l0,-167.739Z" style="fill:#4a4a4a;"/><rect x="590.595" y="209.421" width="176.072" height="176.072" style="fill:#f9de81;"/><path d="M766.667,209.421l-0,176.072l-176.072,0l-0,-176.072l176.072,0Zm-4.167,4.167l-167.739,-0l0,167.739l167.739,-0l-0,-167.739Z" style="fill:#4a4a4a;"/><rect x="414.523" y="209.421" width="176.072" height="176.072" style="fill:#fdf5d9;"/><path d="M590.595,209.421l-0,176.072l-176.072,0l-0,-176.072l176.072,0Zm-4.167,4.167l-167.739,-0l0,167.739l167.739,-0l-0,-167.739Z" style="fill:#4a4a4a;"/><rect x="238.51" y="209.421" width="176.072" height="176.072" style="fill:#f8c18c;"/><path d="M414.582,209.421l-0,176.072l-176.072,0l-0,-176.072l176.072,0Zm-4.167,4.167l-167.738,-0l-0.001,167.739l167.739,-0l0,-167.739Z" style="fill:#4a4a4a;"/><rect x="62.438" y="209.421" width="176.072" height="176.072" style="fill:#ffb0ac;"/><path d="M238.51,209.421l-0,176.072l-176.072,0l-0,-176.072l176.072,0Zm-4.167,4.167l-167.739,-0l0,167.739l167.739,-0l0,-167.739Z" style="fill:#4a4a4a;"/></g></g><g><g><g transform="matrix(122.345,0,0,122.345,536.026,519.409)"></g><text x="469.042px" y="519.409px" style="font-family:'NowAlt-Regular', 'Now Alt';font-size:122.345px;fill:#4a4a4a;">S</text><g transform="matrix(122.345,0,0,122.345,373.034,519.409)"></g><text x="275.158px" y="519.409px" style="font-family:'NowAlt-Regular', 'Now Alt';font-size:122.345px;fill:#4a4a4a;">N</text><g transform="matrix(122.345,0,0,122.345,167.168,519.409)"></g><text x="133.676px" y="519.409px" style="font-family:'NowAlt-Regular', 'Now Alt';font-size:122.345px;fill:#4a4a4a;">I</text><g transform="matrix(122.345,0,0,122.345,716.634,343.337)"></g><text x="636.651px" y="343.337px" style="font-family:'NowAlt-Regular', 'Now Alt';font-size:122.345px;fill:#4a4a4a;">B</text><g transform="matrix(122.345,0,0,122.345,540.562,343.337)"></g><text x="460.579px" y="343.337px" style="font-family:'NowAlt-Regular', 'Now Alt';font-size:122.345px;fill:#4a4a4a;">B</text><g transform="matrix(122.345,0,0,122.345,371.737,342.725)"></g><text x="281.355px" y="342.725px" style="font-family:'NowAlt-Regular', 'Now Alt';font-size:122.345px;fill:#4a4a4a;">U</text><g transform="matrix(122.345,0,0,122.345,205.376,343.337)"></g><text x="95.419px" y="343.337px" style="font-family:'NowAlt-Regular', 'Now Alt';font-size:122.345px;fill:#4a4a4a;">G</text></g></g></svg>