<?xml version="1.0" encoding="UTF-8" standalone="no"?><!DOCTYPE svg PUBLIC "-//W3C//DTD SVG 1.1//EN" "http://www.w3.org/Graphics/SVG/1.1/DTD/svg11.dtd"><svg width="100%" height="100%" viewBox="0 0 800 800" version="1.1" xmlns="http://www.w3.org/2000/svg" xmlns:xlink="http://www.w3.org/1999/xlink" xml:space="preserve" xmlns:serif="http://www.serif.com/" style="fill-rule:evenodd;clip-rule:evenodd;stroke-linejoin:round;stroke-miterlimit:2;"><path d="M716.667,125l-0,550c-0,22.996 -18.671,41.667 -41.667,41.667l-550,-0c-22.996,-0 -41.667,-18.671 -41.667,-41.667l0,-550c0,-22.996 18.671,-41.667 41.667,-41.667l550,0c22.996,0 41.667,18.671 41.667,41.667Z" style="fill:#97db99;"/><path d="M400,186.15c118.016,-0 213.85,95.834 213.85,213.85c0,118.016 -95.834,213.85 -213.85,213.85c-118.016,0 -213.85,-95.834 -213.85,-213.85c-0,-118.016 95.834,-213.85 213.85,-213.85Zm0,15.275c-109.761,-0 -198.575,88.815 -198.575,198.575c-0,109.76 88.814,198.575 198.575,198.575c109.761,0 198.575,-88.815 198.575,-198.575c0,-109.76 -88.814,-198.575 -198.575,-198.575Zm-0,103.608c8.369,0 15.256,6.887 15.256,15.256c-0,8.369 -6.887,15.256 -15.256,15.256c-8.369,-0 -15.256,-6.887 -15.256,-15.256c0,-8.369 6.887,-15.256 15.256,-15.256Zm-65.776,85.784c5.988,2.128 11.468,12.62 11.979,22.75c0.351,7.216 -4.702,16.753 -4.976,26.28c4.05,-6.789 10.198,-10.842 15.255,-8.805c7.636,3.021 9.561,12.555 5.915,19.398c-2.273,4.096 -5.489,5.885 -9.356,6.48c1.06,-1.228 1.859,-2.861 2.294,-4.722c0.992,-4.524 0.1,-8.525 -3.858,-9.356c-3.738,-0.786 -6.532,2.426 -7.554,6.942c-0.334,1.452 -0.382,2.827 -0.164,4.127l0,0.015c2.953,6.788 8.31,10.027 14.988,11.62c6.781,-0.29 13.635,0.019 20.5,-0.134l0.73,-0.134c9.672,-1.51 14.6,-10.963 15.568,-22.183c-8.482,1.235 -18.922,6.047 -22.019,13.423c-0.137,0.442 -0.651,1.132 -1.803,1.132c-1.289,0 -1.758,-0.828 -1.758,-1.4l0,-35.368c0.168,-0.565 0.708,-1.148 1.639,-1.148c0.999,0 1.501,0.669 1.669,1.073l-0,0.015l0.059,0.06c1.686,6.514 8.993,12.653 22.288,13.706c-1.098,-12.502 -7.016,-17.664 -15.628,-19.472c-0.237,-0 -0.655,-0.111 -0.998,-0.462c-0.176,-0.175 -0.432,-0.494 -0.432,-1.013l-0,-0.104c0.053,-0.549 0.344,-0.897 0.566,-1.088c0.343,-0.29 0.77,-0.388 0.968,-0.372l39.838,-0c0.213,-0.016 0.625,0.082 0.968,0.372c0.221,0.191 0.498,0.546 0.551,1.088l0,0.104c0,0.519 -0.249,0.838 -0.417,1.013c-0.335,0.359 -0.761,0.462 -0.998,0.462c-8.612,1.815 -14.53,6.977 -15.613,19.472c13.28,-1.053 20.795,-7.192 22.496,-13.706l0.045,-0.06l-0,-0.015c0.175,-0.404 0.677,-1.073 1.668,-1.073c0.931,0 1.471,0.575 1.654,1.148l0,35.368c0,0.572 -0.468,1.4 -1.788,1.4c-1.136,0 -1.643,-0.69 -1.788,-1.132c-3.104,-7.376 -13.752,-12.18 -22.257,-13.423c0.976,11.22 5.911,20.68 15.583,22.183l0.73,0.134c6.873,0.153 13.719,-0.156 20.5,0.134c6.67,-1.593 12.034,-4.832 15.002,-11.62c0.211,-1.3 0.163,-2.69 -0.163,-4.142c-1.023,-4.516 -3.831,-7.728 -7.569,-6.942c-3.943,0.839 -4.865,4.84 -3.858,9.356c0.419,1.861 1.234,3.494 2.294,4.722c-3.867,-0.595 -7.083,-2.384 -9.341,-6.48c-3.654,-6.843 -1.744,-16.377 5.9,-19.398c5.049,-2.037 11.22,2.009 15.255,8.805c-0.259,-9.52 -5.319,-19.057 -4.976,-26.28c0.527,-10.138 5.991,-20.622 11.978,-22.75c5.759,3.112 9.795,14.422 8.865,24.582c-0.664,7.208 -6.528,15.454 -8.015,24.806c4.912,-5.935 11.392,-8.994 16.045,-6.362c7.147,4.005 7.69,13.708 3.114,20.008c-2.754,3.768 -6.241,5.109 -10.146,5.185c1.19,-1.083 2.241,-2.558 2.935,-4.365c1.648,-4.325 1.258,-8.438 -2.503,-9.803c-3.608,-1.267 -6.844,1.604 -8.507,5.929c-0.396,1.022 -0.594,2.055 -0.685,3.054c1.747,7.88 6.543,11.271 13.08,13.17c6.85,0.572 13.609,1.191 20.337,1.877l-0.045,-0.014c9.008,-2.35 15.943,-9.325 18.414,-18.295c-9.23,0.228 -16.997,5.047 -20.902,13.14c-0.206,0.557 -0.926,1.04 -1.773,0.849c-0.847,-0.191 -1.237,-0.852 -1.237,-1.386l0,-0.044l4.932,-38.244l0.015,-0.074c0.183,-0.405 0.685,-0.866 1.623,-0.79c1.068,0.092 1.431,0.781 1.431,1.162c0.816,8.848 4.04,15.24 16.939,17.818c-0.121,-9.039 -4.975,-16.616 -13.215,-20.366c-0.457,-0.122 -1.129,-0.706 -0.923,-1.728c0.183,-0.923 0.836,-1.289 1.385,-1.251c1.831,0.236 17.433,2.225 17.997,2.324c1.64,0.252 2.946,0.987 3.754,2.101c0.885,1.182 1.155,2.727 0.82,4.588c-0.458,2.571 -5.88,39.476 -6.391,42.862c-0.039,0.29 -0.467,3.746 -0.596,4.768c-0.168,1.075 -1.58,2.145 -1.58,2.145c0,0 -7.975,5.22 -9.371,6.272c-1.357,0.999 -0.596,2.741 -0.596,2.741l10.131,10.012c0.572,0.671 0.849,1.341 0.849,1.341c0.176,0.404 0.254,0.839 0.254,1.281c-0,1.213 -0.582,2.278 -1.52,2.965l-118.992,0.045l-2.86,-0l-119.558,-0.045c-0.954,-0.679 -1.52,-1.752 -1.52,-2.965c0,-0.442 0.078,-0.877 0.239,-1.281c-0,-0 0.284,-0.67 0.849,-1.341l10.146,-9.997c-0,0 0.776,-1.742 -0.567,-2.741c-1.411,-1.053 -9.385,-6.272 -9.385,-6.272c-0,-0 -1.405,-1.07 -1.565,-2.145c-0.145,-1.023 -0.572,-4.478 -0.611,-4.768c-0.526,-3.394 -5.948,-40.291 -6.406,-42.862c-0.328,-1.876 -0.043,-3.413 0.849,-4.603c0.809,-1.114 2.107,-1.849 3.77,-2.101c0.549,-0.099 16.136,-2.08 17.967,-2.324c0.557,-0.038 1.217,0.328 1.4,1.251c0.204,1.01 -0.451,1.575 -0.909,1.714l-0.014,0.014c-8.247,3.756 -13.101,11.322 -13.23,20.366c12.906,-2.586 16.131,-8.977 16.939,-17.818c0,-0.381 0.37,-1.07 1.445,-1.162c0.939,-0.076 1.442,0.385 1.609,0.79l0.045,0.074l4.916,38.244l0,0.044c0,0.534 -0.374,1.195 -1.236,1.386c-0.847,0.191 -1.552,-0.292 -1.758,-0.849c-3.921,-8.093 -11.688,-12.912 -20.902,-13.14c2.456,8.97 9.376,15.945 18.384,18.295l-0.03,0.014c6.743,-0.678 13.486,-1.305 20.336,-1.877c6.537,-1.891 11.327,-5.29 13.081,-13.17c-0.092,-0.999 -0.311,-2.032 -0.715,-3.054c-1.648,-4.325 -4.854,-7.196 -8.477,-5.929c-3.761,1.365 -4.166,5.478 -2.503,9.803c0.694,1.807 1.76,3.274 2.935,4.365c-3.913,-0.076 -7.385,-1.417 -10.146,-5.185c-4.592,-6.3 -4.048,-16.011 3.099,-20.008c4.653,-2.632 11.126,0.427 16.03,6.362c-1.472,-9.345 -7.336,-17.598 -8,-24.806c-0.931,-10.16 3.098,-21.47 8.864,-24.582Zm-19.859,-78.364c4.337,0.007 7.903,3.574 7.911,7.911c0.489,-0.012 0.951,-0.075 1.445,-0.075c1.665,0 3.285,0.111 4.902,0.223c0.431,-4.005 3.852,-7.077 7.881,-7.076c4.34,0.011 7.905,3.585 7.905,7.925c0,0.643 -0.078,1.284 -0.233,1.908c1.247,0.357 2.481,0.712 3.68,1.117c0.912,-3.476 4.079,-5.918 7.673,-5.915c4.336,0.017 7.896,3.589 7.896,7.926c-0,1.552 -0.456,3.07 -1.311,4.365c1.149,0.628 2.408,1.242 3.471,1.878c0.599,-3.839 3.936,-6.7 7.822,-6.705c4.346,0.003 7.92,3.58 7.92,7.926c0,2.874 -1.564,5.532 -4.077,6.928c3.318,2.7 5.26,4.618 5.26,4.618c1.429,1.43 2.234,3.371 2.234,5.394l0,45.767c0.001,0.036 0.001,0.072 0.001,0.108c0,4.185 -3.444,7.628 -7.629,7.628c-4.185,0 -7.628,-3.443 -7.628,-7.628c-0,-0.036 0,-0.072 0.001,-0.108l-0,-42.028c-3.041,-2.795 -21.205,-18.995 -45.768,-18.995c-13.348,-0 -22.389,4.731 -28.619,11.74c-6.23,7.008 -9.52,16.652 -9.52,26.399c-0,12.072 2.301,21.872 4.246,27.949c0.282,0.809 0.426,1.659 0.426,2.515c0,4.185 -3.443,7.629 -7.628,7.629c-2.516,-0 -4.875,-1.244 -6.296,-3.321c-1.168,0.644 -2.48,0.982 -3.814,0.984c-4.304,-0.062 -7.812,-3.62 -7.812,-7.925c0,-4.176 3.301,-7.672 7.47,-7.912c-0.32,-1.726 -0.567,-3.601 -0.82,-5.497c-1.288,0.844 -2.795,1.294 -4.335,1.296c-4.348,-0 -7.926,-3.578 -7.926,-7.926c-0,-4.348 3.578,-7.926 7.926,-7.926c1.152,-0.002 2.291,0.247 3.337,0.73c-0.001,-0.208 -0.03,-0.387 -0.03,-0.596c0,-2.038 0.148,-4.077 0.358,-6.108c-0.665,0.183 -1.352,0.278 -2.041,0.283c-4.348,-0 -7.926,-3.578 -7.926,-7.926c-0,-4.348 3.578,-7.926 7.926,-7.926c1.883,0 3.706,0.671 5.14,1.892c0.659,-1.808 1.442,-3.57 2.294,-5.303c-3.957,-0.483 -6.965,-3.881 -6.965,-7.867c-0,-4.323 3.536,-7.889 7.859,-7.926c2.89,0.005 5.557,1.591 6.942,4.127c1.235,-1.37 2.571,-2.654 3.978,-3.888c-1.675,-1.503 -2.634,-3.65 -2.634,-5.9c0,-4.347 3.576,-7.924 7.923,-7.926c3.487,0.004 6.581,2.307 7.583,5.647c1.926,-0.838 3.947,-1.54 6.034,-2.16c-0.231,-0.754 -0.349,-1.537 -0.349,-2.325c0,-4.345 3.573,-7.921 7.917,-7.925Zm85.635,53.603c4.185,0 7.628,3.444 7.628,7.628c-0,4.185 -3.443,7.628 -7.628,7.628c-4.185,-0 -7.628,-3.443 -7.628,-7.628c0,-4.184 3.443,-7.628 7.628,-7.628Zm-0,22.884c4.185,-0 7.628,3.443 7.628,7.628c-0,4.184 -3.443,7.628 -7.628,7.628c-4.185,-0 -7.628,-3.444 -7.628,-7.628c0,-4.185 3.443,-7.628 7.628,-7.628Zm85.635,-76.487c4.344,0.004 7.917,3.58 7.917,7.925c-0,0.788 -0.118,1.571 -0.349,2.325c2.087,0.62 4.108,1.322 6.034,2.16c1.002,-3.34 4.096,-5.643 7.583,-5.647c4.347,0.002 7.923,3.579 7.923,7.926c-0,2.25 -0.959,4.397 -2.634,5.9c1.407,1.234 2.743,2.518 3.978,3.888c1.385,-2.536 4.052,-4.122 6.942,-4.127c4.323,0.037 7.859,3.603 7.859,7.926c0,3.986 -3.008,7.384 -6.965,7.867c0.852,1.733 1.635,3.495 2.294,5.303c1.434,-1.221 3.257,-1.892 5.14,-1.892c4.348,0 7.926,3.578 7.926,7.926c0,4.348 -3.578,7.926 -7.926,7.926c-0.689,-0.005 -1.376,-0.1 -2.041,-0.283c0.21,2.031 0.358,4.07 0.358,6.108c-0,0.214 -0.029,0.398 -0.03,0.611c1.045,-0.488 2.184,-0.742 3.337,-0.745c4.348,0 7.926,3.578 7.926,7.926c0,4.348 -3.578,7.926 -7.926,7.926c-1.54,-0.002 -3.047,-0.452 -4.335,-1.296c-0.252,1.89 -0.501,3.761 -0.82,5.482c4.284,0.093 7.757,3.642 7.757,7.926c-0,4.349 -3.579,7.928 -7.928,7.928c-0.057,-0 -0.114,-0.001 -0.171,-0.002c-1.334,-0.002 -2.646,-0.34 -3.814,-0.984c-1.421,2.077 -3.78,3.321 -6.296,3.321c-4.185,-0 -7.628,-3.444 -7.628,-7.629c-0,-0.856 0.144,-1.706 0.426,-2.515c1.945,-6.077 4.246,-15.877 4.246,-27.949c0,-9.747 -3.29,-19.391 -9.52,-26.399c-6.23,-7.009 -15.271,-11.74 -28.619,-11.74c-24.563,-0 -42.727,16.2 -45.768,18.995l0,42.028c0.001,0.036 0.001,0.072 0.001,0.108c0,4.185 -3.443,7.628 -7.628,7.628c-4.185,0 -7.629,-3.443 -7.629,-7.628c-0,-0.036 0,-0.072 0.001,-0.108l-0,-45.767c0,-2.023 0.805,-3.964 2.234,-5.394c0,0 1.952,-1.915 5.274,-4.618c-2.512,-1.396 -4.076,-4.054 -4.076,-6.928c-0,-4.34 3.565,-7.915 7.905,-7.926c3.886,0.005 7.223,2.866 7.822,6.705c1.06,-0.634 2.311,-1.252 3.456,-1.878c-0.855,-1.295 -1.311,-2.813 -1.311,-4.365c0,-4.342 3.569,-7.918 7.911,-7.926c3.594,-0.003 6.761,2.439 7.673,5.915c1.193,-0.403 2.424,-0.747 3.665,-1.102c-0.158,-0.629 -0.237,-1.275 -0.237,-1.923c-0,-4.347 3.577,-7.924 7.924,-7.925c4.029,-0.001 7.45,3.071 7.881,7.076c1.617,-0.112 3.237,-0.223 4.902,-0.223c0.494,0 0.956,0.063 1.445,0.075c0.008,-4.337 3.574,-7.904 7.911,-7.911Zm-102.932,-60.8l34.594,0c0.206,-0.015 0.595,0.038 0.938,0.313c0.191,0.183 0.447,0.494 0.447,1.028c0.038,0.496 -0.167,0.844 -0.327,1.043c-0.29,0.297 -0.778,0.402 -0.954,0.417c-4.287,0.908 -7.228,2.427 -9.356,4.708c-2.235,2.639 -3.549,6.343 -4.052,11.263c11.373,-0.961 14.364,-6.361 15.851,-12.098c0.153,-0.434 0.604,-1.087 1.55,-1.087c0.801,-0 1.323,0.577 1.445,1.073c-0,-0 0.052,0.104 0.074,0.104l0,31.301c0,0.572 -0.494,1.379 -1.638,1.341c-1.137,-0 -1.412,-0.634 -1.55,-0.924l-0.044,-0.149c-2.693,-6.522 -8.372,-10.746 -15.718,-11.829c0.435,5.133 1.777,8.987 4.142,11.71c2.12,2.288 4.963,3.74 9.326,4.663l0.119,0.03c0.259,0.061 0.583,0.181 0.819,0.417c0.168,0.191 0.366,0.531 0.328,1.088c0,0.488 -0.256,0.807 -0.447,0.983c-0.335,0.267 -0.7,0.319 -1.028,0.357l-34.415,0c-0.328,-0.038 -0.684,-0.098 -1.027,-0.357c-0.191,-0.176 -0.447,-0.495 -0.447,-0.983c-0.039,-0.565 0.167,-0.905 0.327,-1.088c0.237,-0.236 0.553,-0.356 0.82,-0.417l0.119,-0.03c4.363,-0.923 7.19,-2.375 9.326,-4.663c2.365,-2.723 3.699,-6.569 4.142,-11.71c-7.346,1.083 -13.025,5.307 -15.718,11.829l-0.044,0.149c-0.145,0.29 -0.421,0.924 -1.565,0.924c-1.136,0.03 -1.624,-0.769 -1.624,-1.341l0,-31.301l0.045,-0.104c0.122,-0.496 0.637,-1.073 1.445,-1.073c0.946,-0 1.397,0.653 1.55,1.087c1.487,5.737 4.478,11.137 15.851,12.098c-0.503,-4.92 -1.809,-8.624 -4.052,-11.263c-2.113,-2.281 -5.062,-3.8 -9.356,-4.708c-0.168,-0.015 -0.664,-0.12 -0.954,-0.417c-0.167,-0.199 -0.365,-0.547 -0.327,-1.043c-0,-0.534 0.256,-0.845 0.447,-1.028c0.343,-0.267 0.74,-0.328 0.938,-0.313Zm17.297,91.52c4.185,-0 7.628,3.443 7.628,7.628c-0,4.184 -3.443,7.627 -7.628,7.627c-4.185,0 -7.628,-3.443 -7.628,-7.627c0,-4.185 3.443,-7.628 7.628,-7.628Z" style="fill:#fff;"/></svg>