<?xml version="1.0" encoding="UTF-8" standalone="no"?><!DOCTYPE svg PUBLIC "-//W3C//DTD SVG 1.1//EN" "http://www.w3.org/Graphics/SVG/1.1/DTD/svg11.dtd"><svg width="100%" height="100%" viewBox="0 0 800 800" version="1.1" xmlns="http://www.w3.org/2000/svg" xmlns:xlink="http://www.w3.org/1999/xlink" xml:space="preserve" xmlns:serif="http://www.serif.com/" style="fill-rule:evenodd;clip-rule:evenodd;stroke-linecap:round;stroke-linejoin:round;stroke-miterlimit:1.5;"><path d="M83.333,400l0,-275c0,-22.996 18.671,-41.667 41.667,-41.667l550,0c22.996,0 41.667,18.671 41.667,41.667l-0,275l-633.334,0Z" style="fill:#ff837d;"/><path d="M716.667,400l-0,275c-0,22.996 -18.671,41.667 -41.667,41.667l-550,-0c-22.996,-0 -41.667,-18.671 -41.667,-41.667l0,-275l633.334,0Z" style="fill:#d2d2d2;"/><path d="M195.936,160.13l124.107,-0l0,159.913l-159.913,0l-0,-124.107c-0,-19.775 16.031,-35.806 35.806,-35.806Z" style="fill:#fff;stroke:#b1b5bd;stroke-width:4.17px;"/><rect x="320.043" y="160.13" width="159.914" height="159.914" style="fill:#fff;stroke:#b1b5bd;stroke-width:4.17px;"/><path d="M479.957,160.13l124.107,-0c19.775,-0 35.806,16.031 35.806,35.806l0,124.107l-159.913,0l-0,-159.913Z" style="fill:#fff;stroke:#b1b5bd;stroke-width:4.17px;"/><rect x="160.13" y="320.043" width="159.914" height="159.914" style="fill:#fff;stroke:#b1b5bd;stroke-width:4.17px;"/><rect x="320.043" y="320.043" width="159.914" height="159.914" style="fill:#fff;stroke:#b1b5bd;stroke-width:4.17px;"/><rect x="479.957" y="320.043" width="159.914" height="159.914" style="fill:#fff;stroke:#b1b5bd;stroke-width:4.17px;"/><path d="M320.043,639.87l-124.107,0c-19.775,0 -35.806,-16.031 -35.806,-35.806l-0,-124.107l159.913,-0l0,159.913Z" style="fill:#fff;stroke:#b1b5bd;stroke-width:4.17px;"/><rect x="320.043" y="479.957" width="159.914" height="159.914" style="fill:#fff;stroke:#b1b5bd;stroke-width:4.17px;"/><path d="M639.87,479.957l0,124.107c0,19.775 -16.031,35.806 -35.806,35.806l-124.107,0l-0,-159.913l159.913,-0Z" style="fill:#fff;stroke:#b1b5bd;stroke-width:4.17px;"/><g transform="matrix(97.3012,0,0,97.3012,269.338,276.574)"></g><text x="211.687px" y="276.574px" style="font-family:'Now-Bold', 'Now';font-weight:700;font-size:97.301px;fill:#4a4a4a;">S</text><g transform="matrix(97.3012,0,0,97.3012,271.04,595.915)"></g><text x="199.402px" y="595.915px" style="font-family:'Now-Bold', 'Now';font-weight:700;font-size:97.301px;fill:#4a4a4a;">K</text><g transform="matrix(97.3012,0,0,97.3012,434.785,436.488)"></g><text x="362.539px" y="436.488px" style="font-family:'Now-Bold', 'Now';font-weight:700;font-size:97.301px;fill:#4a4a4a;">D</text><g transform="matrix(97.3012,0,0,97.3012,437.157,277.668)"></g><text x="362.843px" y="277.668px" style="font-family:'Now-Bold', 'Now';font-weight:700;font-size:97.301px;fill:#4a4a4a;">U</text><g transform="matrix(97.3012,0,0,97.3012,437.157,595.915)"></g><text x="362.843px" y="595.915px" style="font-family:'Now-Bold', 'Now';font-weight:700;font-size:97.301px;fill:#4a4a4a;">U</text><g transform="matrix(97.3012,0,0,97.3012,601.996,436.488)"></g><text x="517.952px" y="436.488px" style="font-family:'Now-Bold', 'Now';font-weight:700;font-size:97.301px;fill:#4a4a4a;">O</text></svg>