<?xml version="1.0" encoding="UTF-8" standalone="no"?><!DOCTYPE svg PUBLIC "-//W3C//DTD SVG 1.1//EN" "http://www.w3.org/Graphics/SVG/1.1/DTD/svg11.dtd"><svg width="100%" height="100%" viewBox="0 0 800 800" version="1.1" xmlns="http://www.w3.org/2000/svg" xmlns:xlink="http://www.w3.org/1999/xlink" xml:space="preserve" xmlns:serif="http://www.serif.com/" style="fill-rule:evenodd;clip-rule:evenodd;stroke-linejoin:round;stroke-miterlimit:2;"><path d="M152.991,491.874c-34.398,-51.074 -61.921,-106.651 -61.921,-170.262c-0,-89.805 41.463,-176.551 114.005,-227.845c52.87,-37.384 124.587,-52.664 197.298,-52.664c80.938,0 159.467,23.272 214.996,68.781c62.799,51.468 95.26,130.875 95.26,213.274c-0,61.756 -27.291,112.16 -57.451,164.563c-5.817,10.106 -13.279,19.419 -18.282,28.161c-4.514,7.887 -8.544,16.266 -8.544,25.724c-0,12.432 5.377,21.811 11.129,31.024c5.752,9.214 17.448,16.726 23.382,24.257c6.215,7.889 8.708,15.388 6.411,21.567c-2.676,7.198 -22.031,14.165 -44.212,12.801c-19.552,-1.202 -41.216,-10.13 -56.794,-13.404c4.057,7.808 10.872,17.874 21.273,24.718c20.528,13.507 45.766,24.684 42.472,32.684c-9.614,23.345 -50.442,35.102 -96.097,24.636c-34.88,-7.996 -65.629,-25.23 -77.56,-42.985c-5.528,47.852 -27.844,82.546 -61.437,82.546c-32.179,-0 -56.92,-32.265 -61.911,-77.371c-14.953,15.18 -35.206,30.526 -66.179,37.81c-48.846,11.487 -96.751,-2.156 -101.84,-24.509c-1.778,-7.806 22.924,-19.734 40.025,-32c10.881,-7.805 17.446,-18.077 20.911,-24.508c-17.457,6.552 -40.547,13.055 -61.198,11.994c-16.265,-0.836 -32.228,-7.722 -34.447,-13.689c-2.191,-5.892 -2.067,-13.496 3.529,-20.982c6.322,-8.458 22.661,-19.039 28.467,-29.292c5.873,-10.369 6.827,-12.976 6.827,-24.088c-0,-10.004 -9.279,-37.827 -18.112,-50.941Z" style="fill:#bd9aff;"/><path d="M382.803,545.089c-6.512,-0.255 -15.177,-3.458 -20.59,-9.286c-9.438,-10.163 -13.042,-23.075 -7.068,-27.96c4.516,-3.693 7.213,-0.76 19.618,8.999c8.922,7.018 25.639,1.354 29.019,-0.638c8.553,-5.042 15.491,-10.767 18.35,-10.476c2.887,0.293 5.447,1.698 6.821,4.937c2.372,5.591 -7.749,24.262 -17.272,29.275c-7.426,3.91 -16.949,5.616 -28.878,5.149Z" style="fill:url(#_Linear1);"/><ellipse cx="280.037" cy="396.818" rx="72.188" ry="72.842" style="fill:#fff;"/><path d="M250.932,368.202c9.227,-8.181 21.322,-13.145 34.558,-13.145c28.915,0 52.39,23.688 52.39,52.864c-0,29.177 -23.475,52.864 -52.39,52.864c-28.914,0 -52.389,-23.687 -52.389,-52.864c-0,-11.17 3.44,-21.536 9.31,-30.075c-0.19,0.892 -0.291,1.818 -0.291,2.767c0,7.233 5.819,13.105 12.987,13.105c7.167,-0 12.986,-5.872 12.986,-13.105c0,-7.232 -5.819,-13.104 -12.986,-13.104c-1.46,0 -2.864,0.244 -4.175,0.693Z" style="fill:url(#_Radial2);"/><ellipse cx="507.912" cy="396.818" rx="66.954" ry="67.561" style="fill:#fff;"/><path d="M477.742,365.513c8.477,-6.211 18.903,-9.875 30.17,-9.875c28.384,0 51.428,23.253 51.428,51.894c-0,28.641 -23.044,51.894 -51.428,51.894c-28.384,-0 -51.428,-23.253 -51.428,-51.894c-0,-12.893 4.669,-24.694 12.394,-33.774c-0.537,1.456 -0.83,3.031 -0.83,4.674c-0,7.406 5.958,13.419 13.298,13.419c7.339,-0 13.298,-6.013 13.298,-13.419c0,-7.406 -5.959,-13.419 -13.298,-13.419c-1.249,0 -2.458,0.174 -3.604,0.5Z" style="fill:url(#_Radial3);"/><path d="M205.215,272.578c5.396,-3.788 10.204,-6.253 14.011,-6.078c2.894,0.134 5.123,1.794 7.094,5.56c2.235,4.27 0.37,8.456 -3.81,9.668c-4.285,1.243 -8.332,0.852 -12.974,2.674c-9.883,3.879 -12.658,4.881 -13.916,1.694c-1.563,-3.958 2.904,-8.823 9.595,-13.518Z" style="fill:url(#_Linear4);"/><path d="M590.708,265.335c-5.425,-3.866 -7.653,-6.294 -12.828,-6.133c-4.247,0.133 -6.447,-0.272 -8.579,5.877c-1.651,4.761 -0.489,8.798 3.736,10.003c4.331,1.235 8.488,0.663 13.128,2.607c7.362,3.085 11.88,6.214 14.098,1.576c1.919,-4.015 -2.83,-9.136 -9.555,-13.93Z" style="fill:url(#_Linear5);"/><defs><linearGradient id="_Linear1" x1="0" y1="0" x2="1" y2="0" gradientUnits="userSpaceOnUse" gradientTransform="matrix(77.0774,0,0,39.4471,352.225,525.441)"><stop offset="0" style="stop-color:#4a4a4a;stop-opacity:1"/><stop offset="1" style="stop-color:#54688c;stop-opacity:1"/></linearGradient><radialGradient id="_Radial2" cx="0" cy="0" r="1" gradientUnits="userSpaceOnUse" gradientTransform="matrix(104.779,0,0,105.728,233.101,407.921)"><stop offset="0" style="stop-color:#4a4a4a;stop-opacity:1"/><stop offset="1" style="stop-color:#54688c;stop-opacity:1"/></radialGradient><radialGradient id="_Radial3" cx="0" cy="0" r="1" gradientUnits="userSpaceOnUse" gradientTransform="matrix(102.856,0,0,103.787,456.484,407.532)"><stop offset="0" style="stop-color:#4a4a4a;stop-opacity:1"/><stop offset="0.53" style="stop-color:#51607a;stop-opacity:1"/><stop offset="1" style="stop-color:#54688c;stop-opacity:1"/></radialGradient><linearGradient id="_Linear4" x1="0" y1="0" x2="1" y2="0" gradientUnits="userSpaceOnUse" gradientTransform="matrix(31.026,-13.3551,6.50775,15.1185,195.005,284.674)"><stop offset="0" style="stop-color:#4a4a4a;stop-opacity:1"/><stop offset="1" style="stop-color:#54688c;stop-opacity:1"/></linearGradient><linearGradient id="_Linear5" x1="0" y1="0" x2="1" y2="0" gradientUnits="userSpaceOnUse" gradientTransform="matrix(-15.6676,-6.7441,-3.50336,8.13885,585.34,270.8)"><stop offset="0" style="stop-color:#4a4a4a;stop-opacity:1"/><stop offset="1" style="stop-color:#54688c;stop-opacity:1"/></linearGradient></defs></svg>