<?xml version="1.0" encoding="UTF-8" standalone="no"?><!DOCTYPE svg PUBLIC "-//W3C//DTD SVG 1.1//EN" "http://www.w3.org/Graphics/SVG/1.1/DTD/svg11.dtd"><svg width="100%" height="100%" viewBox="0 0 800 800" version="1.1" xmlns="http://www.w3.org/2000/svg" xmlns:xlink="http://www.w3.org/1999/xlink" xml:space="preserve" xmlns:serif="http://www.serif.com/" style="fill-rule:evenodd;clip-rule:evenodd;stroke-linejoin:round;stroke-miterlimit:2;"><path d="M33.333,400l0,-225c0,-22.996 18.671,-41.667 41.667,-41.667l650,0c22.996,0 41.667,18.671 41.667,41.667l-0,225l-733.334,0Z" style="fill:#fff;"/><path d="M725,666.667l-650,-0c-22.996,-0 -41.667,-18.671 -41.667,-41.667l0,-225l733.334,0l-0,225c-0,22.996 -18.671,41.667 -41.667,41.667Z" style="fill:#d8d8d8;"/><rect x="33.333" y="400" width="733.333" height="13.515" style="fill-opacity:0.25;"/><g transform="matrix(150.692,0,0,150.692,554.836,323.176)"></g><text x="231.414px" y="323.176px" style="font-family:'NowAlt-Medium', 'Now Alt';font-weight:500;font-size:150.692px;fill:#ba6561;">R<tspan x="349.33px 455.191px " y="323.176px 323.176px ">SA</tspan></text><path d="M376.861,602.184l-73.252,-73.251l18.171,-18.171l55.081,55.08l101.359,-101.359l18.171,18.171l-119.53,119.53Z" style="fill:url(#_Linear1);"/><defs><linearGradient id="_Linear1" x1="0" y1="0" x2="1" y2="0" gradientUnits="userSpaceOnUse" gradientTransform="matrix(192.782,0,0,137.701,303.609,533.333)"><stop offset="0" style="stop-color:#97db99;stop-opacity:1"/><stop offset="0.48" style="stop-color:#8dcc8e;stop-opacity:1"/><stop offset="1" style="stop-color:#70a270;stop-opacity:1"/></linearGradient></defs></svg>