<?xml version="1.0" encoding="UTF-8" standalone="no"?><!DOCTYPE svg PUBLIC "-//W3C//DTD SVG 1.1//EN" "http://www.w3.org/Graphics/SVG/1.1/DTD/svg11.dtd"><svg width="100%" height="100%" viewBox="0 0 800 800" version="1.1" xmlns="http://www.w3.org/2000/svg" xmlns:xlink="http://www.w3.org/1999/xlink" xml:space="preserve" xmlns:serif="http://www.serif.com/" style="fill-rule:evenodd;clip-rule:evenodd;stroke-linejoin:round;stroke-miterlimit:2;"><path d="M716.667,125l-0,550c-0,22.996 -18.671,41.667 -41.667,41.667l-550,-0c-22.996,-0 -41.667,-18.671 -41.667,-41.667l0,-550c0,-22.996 18.671,-41.667 41.667,-41.667l550,0c22.996,0 41.667,18.671 41.667,41.667Z" style="fill:#4a4a4a;"/><path d="M512.294,469.715c-22.431,-0 -40.615,-18.184 -40.615,-40.615l-0,-48.134c-0,-13.927 5.532,-27.283 15.38,-37.13c9.847,-9.848 23.203,-15.38 37.13,-15.38l0.194,0c13.927,0 27.283,5.532 37.13,15.38c9.848,9.847 15.38,23.203 15.38,37.13l0,18.886c0,8.259 -6.695,14.954 -14.954,14.954l-58.471,-0l0,14.378c0,2.691 1.069,5.272 2.972,7.174c1.903,1.903 4.484,2.972 7.174,2.972l48.104,0c8.381,0 15.175,6.794 15.175,15.175l0,0.035c0,8.381 -6.794,15.175 -15.175,15.175l-49.424,-0Zm32.81,-90.057c-0,-11.497 -9.321,-20.817 -20.818,-20.817c-11.497,-0 -20.818,9.32 -20.818,20.817l0,4.763l41.636,0l-0,-4.763Zm-155.288,90.057c-22.382,-0 -40.526,-18.145 -40.526,-40.527l-0,-85.895c-0,-4.215 1.674,-8.258 4.655,-11.238c2.98,-2.981 7.024,-4.655 11.239,-4.655c8.778,-0 15.895,7.116 15.895,15.893l0,85.387c0,2.824 1.122,5.533 3.119,7.531c1.998,1.997 4.707,3.119 7.531,3.119l23.514,0c2.825,0 5.534,-1.122 7.531,-3.119c1.997,-1.998 3.119,-4.707 3.119,-7.531l0,-85.387c0,-8.777 7.117,-15.893 15.895,-15.893c4.215,-0 8.259,1.674 11.24,4.655c2.98,2.98 4.655,7.023 4.655,11.238l-0,85.895c-0,22.382 -18.145,40.527 -40.527,40.527l-27.34,-0Zm-109.968,-0.021c-6.698,-0.254 -12.592,-4.496 -14.961,-10.766l-41.41,-109.612c-3.018,-7.989 0.888,-16.928 8.801,-20.14l0.007,-0.003c3.927,-1.594 8.33,-1.54 12.217,0.148c3.887,1.689 6.931,4.872 8.445,8.83l28.081,73.395l28.615,-74.283c1.52,-3.946 4.597,-7.094 8.508,-8.704c3.912,-1.61 8.313,-1.54 12.171,0.193l0.272,0.122c7.215,3.241 10.656,11.541 7.851,18.936l-42.159,111.147c-2.539,6.692 -9.067,11.017 -16.219,10.746l-0.219,-0.009Z" style="fill:url(#_Linear1);"/><path d="M576.893,398.557l0,1.295c0,8.259 -6.695,14.954 -14.954,14.954l-58.471,-0l0,14.378c0,2.691 1.069,5.272 2.972,7.174c1.903,1.903 4.484,2.972 7.174,2.972l48.104,0c8.381,0 15.175,6.794 15.175,15.175l0,0.035c0,8.381 -6.794,15.175 -15.175,15.175l-49.424,-0c-22.431,-0 -40.615,-18.184 -40.615,-40.615l-0,-17.073c6.351,0.709 12.271,1.136 17.313,1.136c29.3,-0 87.901,-14.606 87.901,-14.606Zm-159.737,71.158l-27.34,-0c-22.382,-0 -40.526,-18.145 -40.526,-40.527l-0,-41.487c11.499,2.081 22.791,4.455 31.789,6.452l0,34.527c0,2.824 1.122,5.533 3.119,7.531c1.998,1.997 4.707,3.119 7.531,3.119l23.514,0c2.825,0 5.534,-1.122 7.531,-3.119c1.997,-1.998 3.119,-4.707 3.119,-7.531l0,-24.343c9.616,1.988 20.852,4.134 31.79,5.812l-0,19.039c-0,22.382 -18.145,40.527 -40.527,40.527Zm-176.848,-75.848c8.764,-2.255 19.937,-4.937 31.23,-7.124l9.49,24.803l10.805,-28.049c5.144,-0.604 9.988,-0.959 14.266,-0.959c5.287,0 11.697,0.515 18.657,1.361l-28.47,75.058c-2.539,6.692 -9.067,11.017 -16.219,10.746l-0.219,-0.009c-6.698,-0.254 -12.592,-4.496 -14.961,-10.766l-24.579,-65.061Z" style="fill:url(#_Linear2);"/><defs><linearGradient id="_Linear1" x1="0" y1="0" x2="1" y2="0" gradientUnits="userSpaceOnUse" gradientTransform="matrix(354.435,0,0,142.315,222.458,398.557)"><stop offset="0" style="stop-color:#f8c18c;stop-opacity:1"/><stop offset="1" style="stop-color:#ff837d;stop-opacity:1"/></linearGradient><linearGradient id="_Linear2" x1="0" y1="0" x2="1" y2="0" gradientUnits="userSpaceOnUse" gradientTransform="matrix(336.585,0,0,87.1763,240.308,426.127)"><stop offset="0" style="stop-color:#ff837d;stop-opacity:1"/><stop offset="1" style="stop-color:#f8c18c;stop-opacity:1"/></linearGradient></defs></svg>